<svg width="1024" height="1024" viewBox="0 0 16 16" xmlns="http://www.w3.org/2000/svg" shape-rendering="crispEdges">
    <rect x="0" y="0" width="16" height="16" fill="#0F0"/>
    <rect x="1" y="1" width="14" height="14" fill="#00BF00"/>
    <rect x="2" y="4" width="1" height="1" fill="#0F0"/>
    <rect x="3" y="3" width="1" height="1" fill="#0F0"/>
    <rect x="4" y="2" width="1" height="1" fill="#0F0"/>
    <rect x="5" y="3" width="1" height="1" fill="#0F0"/>
    <rect x="6" y="4" width="1" height="1" fill="#0F0"/>
    <rect x="10" y="3" width="1" height="1" fill="#0F0"/>
    <rect x="11" y="2" width="1" height="1" fill="#0F0"/>
    <rect x="12" y="3" width="1" height="1" fill="#0F0"/>
    <rect x="13" y="4" width="1" height="1" fill="#0F0"/>
    <rect x="9" y="4" width="1" height="1" fill="#0F0"/>
    <rect x="10" y="11" width="1" height="2" fill="#0F0"/>
    <rect x="9" y="13" width="1" height="1" fill="#0F0"/>
    <rect x="6" y="10" width="5" height="1" fill="#0F0"/>
    <rect x="7" y="13" width="3" height="1" fill="#0F0"/>
    <rect x="6" y="11" width="1" height="2" fill="#0F0"/>
</svg>
